<?xml version="1.0" standalone="no"?>
<!DOCTYPE svg PUBLIC "-//W3C//DTD SVG 20010904//EN"
 "http://www.w3.org/TR/2001/REC-SVG-20010904/DTD/svg10.dtd">
<svg version="1.0" xmlns="http://www.w3.org/2000/svg"
 width="300.000000pt" height="300.000000pt" viewBox="0 0 300.000000 300.000000"
 preserveAspectRatio="xMidYMid meet">
<metadata>
Created by potrace 1.14, written by Peter Selinger 2001-2017
</metadata>
<g transform="translate(0.000000,300.000000) scale(0.100000,-0.100000)"
fill="#000000" stroke="none">
<path d="M0 2466 l0 -534 78 1 c42 1 79 5 82 8 7 9 50 -8 50 -20 0 -5 -10 -12
-22 -14 -26 -5 -20 -5 117 -12 165 -8 195 -11 207 -23 7 -7 26 -12 42 -12 23
0 38 -9 58 -34 16 -19 28 -40 28 -46 0 -5 11 -20 25 -32 14 -12 25 -29 25 -37
0 -9 9 -33 20 -53 16 -31 17 -36 4 -31 -14 5 -15 3 -3 -18 7 -13 13 -28 14
-32 0 -5 8 -14 17 -21 20 -15 24 -36 6 -36 -7 0 -5 -7 5 -17 13 -15 30 -60 32
-84 0 -3 14 -18 30 -32 29 -25 29 -26 8 -27 -30 0 -29 -18 0 -31 13 -6 27 -20
32 -32 6 -12 20 -24 32 -27 16 -4 20 -9 14 -19 -6 -9 -4 -19 5 -28 8 -8 14
-22 14 -32 0 -10 11 -24 25 -31 14 -7 25 -17 25 -22 0 -4 9 -8 21 -8 11 0 18
-4 14 -9 -3 -6 5 -15 17 -22 13 -7 28 -19 34 -27 6 -8 28 -15 49 -16 35 -1 41
-5 67 -50 16 -27 27 -51 24 -53 -8 -8 17 -29 41 -35 12 -3 24 -1 26 5 5 15 37
0 37 -18 0 -9 -9 -15 -25 -15 -16 0 -25 -6 -25 -16 0 -10 6 -14 14 -11 7 3 24
0 37 -7 13 -6 40 -11 59 -10 l34 2 -32 -29 -33 -29 48 1 c92 1 99 -3 63 -36
-11 -10 -20 -21 -20 -25 0 -5 95 -6 121 -1 3 1 11 12 17 26 14 31 52 35 52 5
0 -25 -29 -55 -61 -63 -13 -3 -33 -13 -44 -21 l-20 -15 20 0 c11 0 29 6 39 14
26 20 36 19 36 -4 0 -11 -12 -29 -27 -40 -14 -12 -23 -24 -20 -28 4 -3 7 -3 7
2 0 4 6 3 13 -3 9 -8 24 -6 54 8 l40 18 -10 -29 c-14 -37 -3 -47 31 -27 42 24
92 33 92 15 0 -10 8 -13 25 -9 37 7 30 -10 -20 -48 -53 -40 -49 -59 6 -28 51
28 68 14 36 -29 -26 -35 -26 -103 -1 -103 8 0 14 7 14 15 0 8 9 15 20 15 29 0
110 42 110 57 0 7 -6 13 -14 13 -8 0 -13 11 -12 30 1 24 5 30 24 30 25 0 26
-3 10 -30 -11 -17 -10 -22 0 -29 7 -4 10 -15 6 -24 -10 -28 42 -42 88 -23 43
16 52 9 43 -35 -4 -18 -2 -36 5 -44 10 -12 10 -18 1 -29 -8 -10 -9 -16 -1 -21
16 -10 12 -62 -6 -79 -14 -15 -13 -17 15 -27 17 -6 31 -15 31 -19 0 -23 -24
-65 -51 -91 -30 -28 -32 -49 -4 -49 8 0 20 8 27 18 7 9 26 18 42 20 42 5 103
38 122 67 19 29 34 33 34 9 0 -11 6 -15 20 -11 20 5 24 -1 21 -39 -2 -14 5
-23 18 -27 12 -3 21 -2 21 1 1 7 50 46 50 39 0 -2 -9 -14 -20 -27 -18 -21 -26
-40 -17 -40 9 0 67 32 72 40 5 9 63 40 74 40 3 0 12 -13 19 -29 11 -24 11 -33
0 -50 -7 -12 -18 -21 -25 -21 -7 0 -13 -4 -13 -10 0 -16 28 -11 42 8 7 9 23
23 36 30 18 10 22 10 22 -2 0 -8 -5 -18 -10 -21 -20 -12 -10 -27 13 -20 12 3
37 8 55 10 18 2 39 8 46 14 7 6 24 12 38 13 16 1 24 7 21 15 -3 6 2 22 11 35
16 23 22 78 9 78 -9 0 -33 48 -33 64 0 6 13 -4 30 -22 16 -18 27 -38 24 -46
-3 -7 2 -16 11 -20 15 -5 15 -7 1 -22 -9 -8 -16 -20 -16 -26 0 -6 9 0 21 13
13 15 18 30 14 44 -4 11 -9 30 -12 43 -3 12 -13 22 -22 23 -10 0 -11 2 -3 6 6
2 12 18 12 35 0 26 -2 29 -15 18 -13 -11 -15 -9 -15 13 0 13 3 39 6 56 5 24
10 29 19 21 7 -6 11 -20 8 -31 -8 -30 16 -69 44 -69 28 0 29 11 4 34 -12 11
-17 25 -13 38 2 11 -1 24 -8 28 -11 7 -10 15 3 43 9 19 24 38 33 41 21 8 44
-11 44 -35 0 -21 16 -26 23 -6 3 7 9 2 15 -13 7 -18 10 38 11 204 l1 229 -21
-27 c-27 -34 -34 -28 -14 10 8 16 15 36 16 44 0 10 3 8 8 -5 5 -12 9 31 9 102
2 107 0 122 -14 116 -10 -4 -14 -13 -10 -28 5 -19 3 -22 -14 -18 -11 3 -24 11
-30 18 -13 15 -2 48 14 42 7 -3 12 10 13 34 0 22 -3 39 -7 39 -4 0 -6 9 -3 20
3 12 0 20 -6 20 -7 0 -9 -4 -6 -10 3 -6 2 -10 -3 -10 -6 0 -13 -11 -16 -25 -4
-14 -11 -23 -16 -20 -17 10 -11 67 8 82 9 7 11 12 4 11 -15 -3 -39 58 -34 85
2 9 9 17 16 17 20 0 27 -12 15 -27 -9 -10 -5 -23 16 -53 15 -22 32 -40 38 -40
5 0 7 -11 5 -24 -3 -15 2 -27 14 -35 17 -11 18 -4 18 139 0 93 -4 150 -10 150
-5 0 -10 -4 -10 -8 0 -11 -51 -35 -58 -27 -3 2 -8 21 -11 40 l-6 36 -19 -36
c-17 -31 -18 -40 -7 -57 12 -19 11 -20 -8 -15 -13 3 -19 1 -15 -5 4 -6 1 -9
-6 -6 -16 5 -27 24 -35 61 -5 24 -8 27 -20 17 -13 -11 -13 -17 4 -44 13 -21
16 -37 11 -51 -5 -11 -9 -27 -9 -35 0 -12 2 -12 13 3 18 24 29 21 23 -5 -3
-13 1 -32 9 -42 8 -11 14 -42 14 -68 0 -27 7 -65 15 -86 13 -33 13 -35 0 -18
-8 11 -15 26 -15 33 0 7 -9 13 -20 13 -11 0 -20 4 -20 10 0 5 -7 7 -15 4 -11
-5 -15 1 -15 21 0 23 2 26 15 15 18 -15 20 -1 3 35 -6 14 -17 25 -25 25 -7 0
-13 5 -13 11 0 5 -5 7 -11 4 -11 -7 -3 -64 12 -79 5 -6 9 -20 9 -32 0 -12 14
-36 30 -52 26 -27 32 -40 29 -69 0 -5 -6 -7 -13 -5 -22 4 -41 -25 -27 -42 7
-8 16 -27 20 -43 4 -15 12 -28 17 -28 20 0 34 -17 34 -41 0 -34 33 -96 38 -72
2 10 8 18 13 18 15 0 10 -16 -11 -35 -11 -10 -20 -15 -20 -11 0 4 -12 -5 -26
-19 -14 -14 -25 -27 -23 -28 2 -2 16 -9 32 -17 15 -7 27 -20 27 -28 0 -8 6
-12 15 -8 9 3 15 0 15 -8 0 -7 7 -19 15 -26 13 -11 13 -15 0 -33 -10 -14 -12
-34 -8 -65 6 -45 -6 -66 -32 -56 -14 6 -8 92 8 112 5 7 7 15 4 18 -8 9 -47
-19 -53 -38 -11 -35 -24 -17 -24 32 0 35 -5 52 -16 58 -11 6 -13 11 -5 16 19
12 12 34 -11 38 -17 2 -27 15 -39 51 -11 35 -18 44 -23 32 -3 -9 -1 -25 4 -36
8 -15 7 -19 -4 -19 -7 0 -16 -7 -20 -15 -3 -8 -13 -15 -22 -15 -13 0 -15 -6
-9 -27 l6 -27 -23 19 c-13 11 -27 26 -31 33 -12 19 -27 14 -27 -8 0 -23 -10
-26 -28 -8 -8 8 -10 4 -6 -18 2 -16 7 -35 9 -43 4 -9 0 -11 -10 -7 -9 3 -15 0
-15 -9 0 -18 -20 -20 -21 -2 -1 6 -2 17 -3 22 -1 9 -75 88 -76 82 -1 -1 -3
-23 -5 -50 l-4 -47 23 15 c23 15 25 15 46 -20 12 -20 20 -39 16 -42 -3 -3 0
-11 8 -17 7 -6 18 -30 25 -54 6 -23 16 -42 21 -42 18 0 10 64 -10 90 -26 33
-26 48 0 25 11 -10 20 -24 20 -30 0 -7 9 -15 20 -18 16 -4 19 -11 15 -29 -4
-18 -11 -73 -14 -120 -1 -13 -41 -9 -41 5 0 8 -3 7 -10 -3 -7 -12 -12 -12 -22
-2 -10 10 -10 16 0 33 8 12 11 24 8 27 -3 3 -6 0 -6 -6 0 -20 -17 -13 -23 9
-3 12 0 22 9 26 8 3 14 13 14 22 -1 13 -4 12 -19 -7 -22 -25 -41 -29 -41 -7 0
8 -7 15 -15 15 -22 0 -18 23 5 38 11 7 20 18 20 24 0 9 -3 9 -12 0 -18 -18
-26 -15 -43 18 -19 37 -23 109 -6 120 8 5 9 10 3 14 -6 3 -8 15 -5 26 4 16 11
19 34 15 17 -3 29 -1 29 6 0 5 8 8 18 6 67 -19 72 -18 69 5 -1 17 3 22 16 20
10 -2 17 3 17 13 0 10 -10 15 -31 15 -17 0 -39 5 -50 10 -16 9 -19 7 -19 -9 0
-14 -9 -23 -25 -27 -14 -3 -25 -12 -25 -19 0 -10 -5 -11 -25 -2 -32 15 -32 37
0 37 31 0 31 3 0 44 -14 18 -25 38 -25 44 0 6 -9 17 -20 25 -11 8 -17 17 -13
20 3 4 12 2 18 -3 9 -8 14 -5 18 9 3 14 -8 34 -39 67 -47 49 -57 72 -24 54 16
-8 20 -8 20 3 0 8 -7 20 -15 27 -8 7 -15 21 -15 32 0 11 -14 33 -30 48 -17 15
-30 33 -30 39 0 6 -9 15 -20 21 -10 6 -17 16 -14 24 3 7 -2 16 -10 19 -9 4
-16 13 -16 20 0 8 -9 22 -20 32 -10 9 -18 21 -17 26 2 10 -25 28 -83 55 -34
16 -35 17 -12 27 26 12 24 30 -4 36 -26 5 -35 21 -23 44 9 15 7 20 -11 24 -28
7 -20 27 13 31 15 2 25 8 21 13 -3 5 -10 7 -15 3 -13 -7 -63 42 -55 54 3 6 -1
12 -9 16 -12 4 -13 11 -5 32 8 21 8 29 -2 36 -10 6 -10 8 2 8 9 1 5 6 -10 15
-20 11 -21 14 -7 15 10 0 20 7 23 15 4 10 20 15 48 15 l41 1 -35 16 c-19 8
-44 15 -55 15 -15 -1 -16 1 -6 7 11 7 9 14 -12 35 -39 39 -44 72 -17 94 19 16
21 22 11 40 -10 19 -9 22 8 22 11 0 21 5 23 11 6 17 92 27 191 22 100 -4 171
-27 247 -78 52 -35 56 -36 40 -5 -25 46 -174 99 -293 105 -29 1 -60 5 -69 10
-11 4 -18 3 -18 -4 0 -13 -49 -14 -70 -1 -9 6 -17 5 -22 -3 -6 -8 -19 1 -42
28 -19 22 -31 41 -26 43 4 1 32 -7 61 -19 61 -24 109 -33 109 -19 0 5 -9 11
-19 15 -11 3 -22 12 -25 20 -3 8 -13 15 -23 15 -21 0 -50 17 -42 24 2 3 23 -1
44 -9 69 -25 72 -16 7 20 -53 30 -72 35 -127 35 -72 0 -84 8 -53 35 19 16 27
17 66 6 25 -6 47 -9 50 -6 3 3 0 5 -7 5 -8 0 -11 7 -7 15 4 11 -3 17 -24 22
-27 5 -28 7 -13 18 15 11 15 13 -5 24 -11 6 -29 11 -40 11 -19 0 -56 43 -46
53 3 3 19 1 35 -3 26 -8 28 -7 19 10 -14 27 -12 32 10 25 15 -5 18 -3 14 9 -5
12 -2 15 12 10 17 -6 17 -5 -1 12 -11 11 -33 25 -50 33 -47 22 -12 25 71 6 42
-9 78 -15 81 -12 5 6 -71 29 -151 47 -27 6 -60 21 -73 34 -21 22 -22 25 -8 40
12 12 31 14 82 11 46 -3 63 -1 56 6 -5 5 -43 12 -84 13 -84 4 -139 14 -139 27
0 5 10 9 23 10 48 1 -17 18 -75 18 -62 1 -88 8 -88 23 0 7 24 9 68 5 53 -5 62
-4 45 5 -30 15 -29 28 2 28 32 0 34 27 3 32 -13 2 -23 8 -23 13 0 6 42 12 95
16 52 3 82 6 65 7 -39 3 -71 22 -37 22 12 0 22 5 22 10 0 6 -10 10 -23 10 -13
0 -45 7 -71 16 -32 11 -64 15 -97 11 -27 -3 -51 -2 -54 4 -4 5 3 9 14 9 12 0
21 5 21 10 0 6 -21 10 -46 10 -27 0 -43 -4 -39 -10 3 -5 1 -10 -4 -10 -6 0
-11 4 -11 9 0 5 -18 11 -41 15 -34 5 -39 9 -34 26 6 20 -1 20 -729 20 l-736 0
0 -534z m1537 438 c33 -9 18 -24 -23 -24 -24 0 -34 5 -34 15 0 16 20 19 57 9z
m90 -9 c20 -8 33 -18 30 -21 -7 -8 -77 18 -77 28 0 11 5 10 47 -7z m90 -25
c-1 -12 -8 -20 -19 -20 -25 0 -31 17 -11 29 26 15 32 13 30 -9z m-721 -72 c30
-14 31 -28 2 -29 -13 -1 -47 -3 -75 -5 -72 -5 -93 4 -82 35 9 22 12 23 70 17
33 -4 72 -12 85 -18z m-432 -20 c-5 -8 2 -9 27 -3 41 10 129 14 182 7 29 -3
35 -7 27 -17 -8 -9 -6 -14 5 -19 34 -13 11 -23 -56 -25 -50 -2 -78 2 -95 14
-14 9 -34 13 -47 10 -15 -4 -28 -1 -36 9 -15 18 -43 21 -69 7 -9 -4 -32 -11
-50 -14 -29 -6 -31 -5 -18 8 21 22 56 34 99 34 26 1 36 -3 31 -11z m395 -53
c-9 -9 -23 -13 -32 -9 -28 10 -19 24 15 24 29 0 31 -2 17 -15z m281 -5 c11 -7
4 -10 -25 -10 -29 0 -36 3 -25 10 8 5 20 10 25 10 6 0 17 -5 25 -10z m-504
-24 c15 -11 22 -12 33 -3 12 9 13 9 7 0 -4 -8 -2 -13 6 -13 135 0 270 -10 299
-22 18 -8 57 -20 84 -26 246 -54 237 -51 208 -63 -13 -4 -23 -13 -23 -18 0 -9
48 -15 190 -24 36 -2 80 -12 98 -21 18 -9 42 -14 55 -11 25 7 143 -41 151 -61
3 -7 -4 -14 -15 -17 -10 -3 -17 -2 -14 3 3 4 -4 10 -16 13 -17 5 -18 3 -8 -9
18 -22 4 -28 -23 -10 -16 10 -37 14 -63 11 -69 -9 -95 -16 -89 -26 6 -10 -3
-9 -86 12 -25 6 -65 12 -90 13 -27 0 -45 6 -45 13 0 21 -13 25 -102 28 -48 2
-101 7 -117 11 -21 5 -28 4 -24 -6 2 -7 12 -14 22 -16 10 -1 32 -8 49 -15 27
-11 28 -14 11 -20 -28 -11 -113 -10 -159 2 -38 10 -197 11 -335 4 -37 -2 -70
1 -77 7 -18 14 -120 3 -142 -15 -9 -8 -28 -17 -43 -21 -40 -9 -36 -30 3 -22
17 3 54 6 81 6 41 0 51 4 55 19 3 11 13 21 23 24 15 4 18 -1 17 -29 -1 -23 -6
-34 -16 -34 -34 0 3 -14 39 -14 30 -1 40 3 44 18 4 14 10 17 31 12 55 -14 260
-24 272 -14 15 12 47 3 39 -11 -3 -5 1 -12 10 -15 24 -9 109 -7 120 3 5 5 18
5 29 1 11 -5 14 -9 6 -9 -7 -1 -11 -7 -7 -16 4 -11 -2 -15 -27 -16 -26 0 -28
-2 -12 -8 11 -5 29 -4 40 2 22 12 86 11 95 -2 3 -4 20 -13 38 -20 49 -20 32
-23 -34 -6 -32 8 -67 15 -79 15 -18 -1 -17 -4 10 -26 29 -23 42 -28 147 -55
50 -12 115 -59 82 -59 -9 0 -31 9 -48 19 -40 25 -136 47 -257 60 -79 9 -113 8
-185 -4 -88 -16 -110 -24 -86 -32 33 -12 5 -23 -58 -23 -56 0 -70 -3 -70 -15
0 -8 -9 -15 -20 -15 -11 0 -20 6 -20 14 0 8 -14 19 -31 25 -22 7 -29 15 -25
26 8 23 -27 38 -58 23 -14 -6 -26 -15 -26 -20 0 -4 -12 -8 -26 -8 -14 0 -40
-11 -57 -24 -21 -16 -55 -28 -102 -35 -38 -5 -81 -13 -94 -17 -21 -6 -22 -5
-12 14 14 27 -5 34 -54 21 -42 -12 -57 -5 -31 14 10 7 16 19 14 27 -3 15 44
42 107 62 35 10 37 12 15 15 -14 2 -32 7 -40 10 -8 3 -32 5 -52 4 -27 -2 -38
2 -38 12 0 27 38 48 121 66 61 14 74 20 49 20 -20 1 -41 6 -48 13 -7 7 -29 11
-50 10 -37 -3 -37 -3 -14 14 13 9 46 24 75 35 31 11 43 18 30 19 -25 0 -29 10
-11 28 9 9 9 12 0 12 -7 0 -12 7 -12 15 0 10 11 15 33 16 136 5 200 20 179 41
-9 9 -15 9 -24 0 -7 -7 -27 -12 -46 -12 -27 0 -33 3 -28 16 5 12 1 14 -16 8
-19 -6 -17 -2 10 25 35 35 39 47 20 54 -7 3 6 5 29 5 22 0 47 3 53 7 10 6 67
17 126 24 5 0 19 -5 30 -13z m518 -24 c6 -5 34 -12 61 -15 93 -11 178 -32 183
-44 2 -9 -10 -13 -41 -13 -59 0 -151 18 -155 30 -2 6 -23 8 -50 5 -37 -5 -57
-1 -96 19 -39 19 -45 25 -30 29 26 8 114 0 128 -11z m-784 -102 c0 -5 -2 -10
-4 -10 -3 0 -8 5 -11 10 -3 6 -1 10 4 10 6 0 11 -4 11 -10z m1410 -179 c0 -5
-7 -11 -15 -15 -8 -3 -12 -11 -9 -19 8 -22 -57 -19 -91 4 l-30 20 51 -7 c40
-5 54 -3 65 10 16 17 29 21 29 7z m-352 -8 c-10 -2 -26 -2 -35 0 -10 3 -2 5
17 5 19 0 27 -2 18 -5z m250 -59 c18 -8 42 -14 52 -14 11 0 20 -5 20 -10 0
-17 -141 -1 -170 19 -14 10 -34 21 -45 25 -15 5 -16 9 -6 15 13 9 87 -9 149
-35z m-248 0 c0 -2 -11 -4 -25 -4 -14 0 -25 4 -25 9 0 4 11 6 25 3 14 -2 25
-6 25 -8z m1 -79 l34 -14 -32 -1 c-37 0 -63 8 -63 21 0 13 23 11 61 -6z m219
-10 c19 -7 34 -18 32 -25 -1 -6 2 -9 7 -5 10 5 126 -23 119 -30 -11 -10 -124
18 -174 43 -59 31 -50 42 16 17z m-590 -66 c0 -5 8 -9 18 -8 55 5 71 -13 28
-32 -18 -9 -33 -8 -57 0 -22 8 -36 8 -43 1 -15 -15 -29 -12 -22 5 4 10 -1 15
-14 15 -25 0 -26 17 -2 23 34 9 92 7 92 -4z m130 1 c8 -5 11 -10 5 -10 -5 0
-17 5 -25 10 -8 5 -10 10 -5 10 6 0 17 -5 25 -10z m87 -16 c-3 -3 -12 -4 -19
-1 -8 3 -5 6 6 6 11 1 17 -2 13 -5z m283 -60 c0 -2 -7 -4 -15 -4 -8 0 -15 4
-15 10 0 5 7 7 15 4 8 -4 15 -8 15 -10z m-195 -4 c7 -12 -35 -23 -66 -18 -21
4 -20 5 11 15 46 15 48 15 55 3z m462 4 c-3 -3 -12 -4 -19 -1 -8 3 -5 6 6 6
11 1 17 -2 13 -5z m-657 -19 c-33 -19 -49 -19 -24 0 10 8 26 14 34 14 9 0 4
-6 -10 -14z m733 -12 c-7 -2 -19 -2 -25 0 -7 3 -2 5 12 5 14 0 19 -2 13 -5z
m-213 -33 c8 -5 11 -10 5 -10 -5 0 -17 5 -25 10 -8 5 -10 10 -5 10 6 0 17 -5
25 -10z m66 -9 c-3 -5 -15 -7 -26 -4 -28 7 -25 13 6 13 14 0 23 -4 20 -9z
m-216 -34 c0 -7 15 -19 33 -26 30 -13 30 -14 9 -18 -13 -3 -28 0 -35 5 -7 5
-21 6 -32 1 -33 -13 -42 -10 -41 13 2 36 66 60 66 25z m-377 -22 c9 -8 21 -15
27 -15 6 0 8 -4 5 -10 -3 -5 1 -10 9 -10 9 0 16 5 16 10 0 6 4 10 9 10 5 0 7
-9 4 -20 -5 -19 -12 -20 -100 -18 -52 2 -97 6 -99 10 -3 4 -12 4 -21 1 -12 -5
-11 1 6 24 19 26 29 30 75 32 37 1 58 -3 69 -14z m492 5 c3 -6 -1 -7 -9 -4
-18 7 -21 14 -7 14 6 0 13 -4 16 -10z m-1452 -25 c8 -20 -3 -25 -43 -20 -40 5
-49 13 -30 25 23 15 67 12 73 -5z m1247 5 c0 -5 -4 -10 -10 -10 -5 0 -10 5
-10 10 0 6 5 10 10 10 6 0 10 -4 10 -10z m225 -10 c3 -5 2 -10 -4 -10 -5 0
-13 5 -16 10 -3 6 -2 10 4 10 5 0 13 -4 16 -10z m-1400 -18 c-3 -3 -11 0 -18
7 -9 10 -8 11 6 5 10 -3 15 -9 12 -12z m1455 -18 c0 -2 -7 -4 -15 -4 -8 0 -15
4 -15 10 0 5 7 7 15 4 8 -4 15 -8 15 -10z m-510 -29 c12 -7 3 -56 -21 -118
-23 -58 -23 -57 -2 -57 12 0 14 -3 6 -11 -8 -8 -8 -19 2 -41 14 -34 87 -77
139 -81 25 -2 30 -7 28 -22 -4 -18 -1 -18 22 4 15 14 39 25 54 26 81 3 83 4
77 28 -4 18 1 25 27 37 29 13 33 20 33 53 0 20 3 37 8 37 4 0 7 -4 7 -9 0 -6
8 -10 18 -10 56 -1 132 -24 132 -41 0 -3 9 -16 20 -27 l19 -22 -34 -11 c-39
-13 -45 -25 -15 -33 27 -7 25 -39 -5 -75 -13 -16 -26 -43 -27 -61 -1 -17 -8
-31 -15 -31 -7 0 -13 -8 -13 -19 0 -10 -7 -24 -15 -31 -8 -7 -15 -18 -15 -24
-1 -6 -19 -23 -41 -39 -46 -31 -183 -57 -202 -38 -6 6 -21 11 -33 11 -11 0
-42 11 -68 25 -26 14 -52 22 -57 19 -6 -3 -34 10 -62 29 -29 19 -62 37 -74 41
-26 8 -74 52 -66 60 3 3 -8 18 -24 33 -52 49 -113 191 -113 264 0 32 6 42 36
65 23 18 34 33 31 45 -6 23 13 31 88 38 56 6 135 -2 155 -14z m595 -95 c8 -13
-15 -13 -35 0 -12 8 -11 10 7 10 12 0 25 -4 28 -10z m-141 -31 c-3 -5 -12 -9
-20 -9 -9 0 -12 -5 -8 -12 5 -10 4 -10 -6 -1 -10 10 -11 15 -1 27 13 15 45 11
35 -5z m1178 -392 c-3 -21 -7 -25 -13 -16 -13 21 -11 46 4 46 9 0 12 -10 9
-30z m-2 -61 c0 -2 -7 -7 -16 -10 -8 -3 -12 -2 -9 4 6 10 25 14 25 6z m-534
-324 c-4 -3 -14 2 -24 12 -16 18 -16 18 6 6 13 -6 21 -14 18 -18z m484 -8 c0
-8 -3 -14 -7 -14 -5 0 -18 -3 -30 -6 -27 -8 -30 8 -6 36 13 14 20 17 30 8 7
-6 13 -17 13 -24z m-1560 -64 c0 -5 -4 -10 -10 -10 -5 0 -10 5 -10 10 0 6 5
10 10 10 6 0 10 -4 10 -10z m410 -120 c13 0 13 -1 0 -10 -24 -16 -60 -12 -60
6 0 12 6 15 23 10 12 -3 29 -6 37 -6z m-224 -15 c-27 -21 -53 -20 -36 0 7 8
22 15 34 15 21 -1 21 -1 2 -15z m1418 -28 c-8 -50 -19 -51 -16 -2 2 25 8 42
13 39 5 -3 7 -20 3 -37z m-1269 -27 c-3 -5 -11 -10 -16 -10 -6 0 -7 5 -4 10 3
6 11 10 16 10 6 0 7 -4 4 -10z m1095 -25 c0 -8 8 -15 18 -15 15 -1 15 -2 -2
-15 -16 -12 -18 -19 -8 -40 6 -14 16 -25 21 -25 15 0 32 -36 25 -54 -9 -24
-24 -19 -24 8 0 14 -4 28 -10 31 -5 3 -10 -3 -10 -14 0 -11 -4 -23 -10 -26 -5
-3 -10 -1 -10 4 0 8 -7 7 -19 -1 -27 -17 -15 -31 19 -23 16 3 31 2 35 -4 11
-20 42 -11 53 14 6 14 16 25 22 25 13 0 13 -37 0 -45 -5 -3 -10 -15 -10 -26 0
-10 -5 -19 -10 -19 -6 0 -8 -10 -4 -24 3 -13 1 -27 -5 -30 -6 -4 -13 9 -17 30
l-7 37 -18 -24 c-10 -13 -21 -20 -25 -16 -4 4 -3 7 3 7 6 0 13 9 16 21 7 24
-14 35 -40 20 -10 -6 -12 -11 -5 -11 20 0 14 -20 -7 -20 -25 0 -38 20 -21 30
18 11 3 30 -18 24 -12 -4 -13 -3 -4 3 7 6 10 17 6 28 -6 14 -4 17 9 12 11 -4
14 -2 10 9 -3 9 2 14 16 14 12 0 21 3 21 8 -1 18 -21 36 -41 37 -12 0 -24 6
-27 14 -3 9 0 11 7 6 13 -8 43 24 35 37 -8 12 5 28 22 28 8 0 14 -7 14 -15z
m-1132 -17 c-18 -26 -38 -35 -38 -16 0 18 20 38 38 38 12 0 12 -3 0 -22z
m1001 -64 c-16 -17 -26 -21 -35 -14 -9 8 -7 16 9 35 16 17 25 21 35 13 10 -9
8 -16 -9 -34z m-519 -114 c0 -12 -28 -25 -36 -17 -9 9 6 27 22 27 8 0 14 -5
14 -10z m-255 -19 c3 -5 -5 -17 -17 -25 -26 -18 -38 -5 -18 19 14 17 26 19 35
6z m185 -5 c0 -3 -4 -8 -10 -11 -5 -3 -10 -1 -10 4 0 6 5 11 10 11 6 0 10 -2
10 -4z m664 -72 c3 -9 -6 -7 -26 4 -18 10 -34 24 -36 31 -6 18 55 -18 62 -35z
m-24 -24 c6 -11 7 -20 2 -20 -10 0 -32 21 -32 32 0 16 19 8 30 -12z m-57 -25
c4 -8 2 -17 -2 -20 -5 -2 -11 4 -14 15 -6 23 8 27 16 5z m-488 -5 c-3 -5 -11
-10 -16 -10 -6 0 -7 5 -4 10 3 6 11 10 16 10 6 0 7 -4 4 -10z m635 -20 c0 -5
-4 -10 -10 -10 -5 0 -10 5 -10 10 0 6 5 10 10 10 6 0 10 -4 10 -10z m-46 -95
c-5 -19 -9 -23 -15 -14 -4 7 -3 21 3 32 13 26 21 15 12 -18z m-74 16 c0 -5 -7
-12 -16 -15 -14 -5 -15 -4 -4 9 14 17 20 19 20 6z m-144 -57 c-10 -14 -20 -23
-23 -20 -3 3 2 17 11 32 10 14 20 23 23 20 3 -3 -2 -17 -11 -32z m234 16 c0
-11 -7 -20 -15 -20 -13 0 -13 3 -3 20 7 11 14 20 15 20 2 0 3 -9 3 -20z m30
-55 c0 -8 -2 -15 -4 -15 -2 0 -6 7 -10 15 -3 8 -1 15 4 15 6 0 10 -7 10 -15z
m-330 -15 c0 -5 -4 -10 -10 -10 -5 0 -10 5 -10 10 0 6 5 10 10 10 6 0 10 -4
10 -10z"/>
<path d="M740 2760 c20 -13 33 -13 25 0 -3 6 -14 10 -23 10 -15 0 -15 -2 -2
-10z"/>
<path d="M710 2670 c-13 -8 -13 -10 2 -10 9 0 20 5 23 10 8 13 -5 13 -25 0z"/>
<path d="M620 2590 c-10 -6 -11 -10 -2 -10 6 0 12 -7 12 -15 0 -8 7 -15 15
-15 8 0 15 7 15 15 0 8 6 15 13 15 8 0 7 4 -3 10 -8 5 -19 10 -25 10 -5 0 -17
-5 -25 -10z"/>
<path d="M920 2586 c0 -2 9 -6 20 -9 11 -3 20 -1 20 4 0 5 -9 9 -20 9 -11 0
-20 -2 -20 -4z"/>
<path d="M992 2568 c3 -20 8 -23 46 -21 52 2 85 23 55 34 -10 4 -37 8 -61 8
-39 1 -43 -1 -40 -21z"/>
<path d="M1191 2581 l-24 -7 28 -18 c20 -13 30 -15 33 -8 2 7 12 12 23 12 10
0 19 5 19 10 0 6 -6 10 -14 10 -8 0 -20 2 -28 4 -7 2 -24 1 -37 -3z"/>
<path d="M908 2493 c-32 -8 -20 -26 13 -19 17 3 35 6 40 6 5 0 9 5 9 10 0 10
-30 12 -62 3z"/>
<path d="M1106 2441 c-4 -5 3 -7 14 -4 23 6 26 13 6 13 -8 0 -17 -4 -20 -9z"/>
<path d="M775 2340 c3 -5 20 -10 36 -10 18 0 28 4 24 10 -3 6 -20 10 -36 10
-18 0 -28 -4 -24 -10z"/>
<path d="M690 2310 c-12 -8 -11 -10 8 -10 12 0 22 5 22 10 0 13 -11 13 -30 0z"/>
<path d="M534 2296 c-11 -8 -39 -19 -64 -26 -29 -8 -39 -14 -30 -20 7 -4 27
-4 44 0 17 5 52 11 79 15 52 7 56 11 30 31 -23 17 -34 17 -59 0z"/>
<path d="M752 2275 c10 -11 79 -15 73 -5 -3 5 -22 10 -42 10 -20 0 -34 -2 -31
-5z"/>
<path d="M708 2213 c7 -3 16 -2 19 1 4 3 -2 6 -13 5 -11 0 -14 -3 -6 -6z"/>
<path d="M830 2210 c-20 -12 -5 -24 16 -12 9 5 12 12 7 15 -5 3 -15 2 -23 -3z"/>
<path d="M1505 2990 c8 -13 45 -13 65 0 11 7 3 10 -28 10 -26 0 -41 -4 -37
-10z"/>
<path d="M1610 2986 c0 -9 19 -17 53 -24 28 -5 61 -13 72 -16 19 -7 19 -7 2 7
-11 9 -36 19 -58 22 -21 4 -39 11 -39 16 0 5 -7 9 -15 9 -8 0 -15 -6 -15 -14z"/>
<path d="M2006 2985 c-19 -14 -18 -15 10 -15 20 0 25 -3 15 -9 -7 -5 -22 -6
-32 -4 -10 3 -19 1 -19 -5 0 -11 33 -22 71 -22 43 0 147 -39 195 -73 l45 -32
-33 -9 -33 -9 30 -13 c17 -7 40 -10 53 -7 18 4 32 -4 64 -38 38 -40 45 -38 10
3 -17 20 -8 38 19 38 12 0 19 4 17 9 -7 19 -135 113 -160 118 -16 3 -28 9 -28
14 0 14 11 11 69 -21 30 -17 56 -28 58 -26 10 9 -12 36 -29 36 -11 0 -22 8
-25 20 -3 11 -12 20 -20 20 -7 0 -31 9 -53 20 -22 11 -50 20 -62 20 -22 -1
-22 -1 -4 -15 11 -8 15 -15 9 -15 -6 0 -16 7 -23 15 -17 20 -118 20 -144 0z
m158 -41 c17 -6 22 -24 8 -24 -5 0 -17 7 -28 15 -19 15 -8 20 20 9z"/>
<path d="M2238 2993 c7 -3 16 -2 19 1 4 3 -2 6 -13 5 -11 0 -14 -3 -6 -6z"/>
<path d="M2433 2993 c9 -2 23 -2 30 0 6 3 -1 5 -18 5 -16 0 -22 -2 -12 -5z"/>
<path d="M2655 2992 c3 -4 27 -14 53 -22 32 -10 48 -21 51 -35 3 -19 3 -19
-16 -2 -11 9 -28 17 -39 17 -17 -1 -17 -2 5 -20 13 -11 18 -20 12 -20 -14 0
-119 59 -127 71 -3 5 -9 7 -14 4 -5 -3 2 -17 16 -32 14 -15 23 -32 20 -40 -7
-17 11 -26 48 -25 19 0 26 -2 17 -7 -11 -7 -9 -11 5 -20 16 -9 14 -10 -11 -5
l-30 7 23 -25 c12 -13 22 -27 22 -30 0 -12 -58 22 -64 37 -3 8 -13 15 -23 15
-15 0 -16 -2 -3 -10 24 -15 5 -21 -26 -9 -16 7 -53 15 -82 19 l-54 6 24 -19
23 -18 -25 7 c-21 6 -23 4 -13 -7 16 -20 73 -52 73 -42 0 5 -4 13 -9 19 -6 5
0 10 17 11 28 1 62 -19 120 -74 21 -19 49 -41 65 -51 15 -9 29 -23 32 -32 3
-8 28 -31 57 -50 55 -35 158 -129 158 -143 0 -5 -4 -5 -10 -2 -5 3 -10 0 -10
-7 0 -8 13 -21 29 -31 l29 -17 0 47 c0 54 -19 83 -53 83 -13 0 -29 7 -36 17
-13 15 -12 15 8 5 16 -9 22 -9 25 -1 6 18 -34 95 -60 116 l-23 18 45 -1 c25
-1 57 -9 71 -18 24 -16 25 -16 25 7 0 13 -3 27 -7 31 -5 4 -8 13 -8 19 0 11
-41 39 -87 59 -15 7 -29 19 -31 28 -2 9 -18 27 -36 39 -25 18 -30 19 -24 5 4
-11 2 -15 -7 -12 -22 7 -23 26 -1 33 21 6 63 -16 108 -59 12 -12 28 -25 35
-31 8 -5 24 -19 36 -29 l22 -19 0 66 c0 60 -2 67 -20 67 -10 0 -24 9 -30 20
-6 11 -15 18 -21 15 -5 -4 -21 2 -37 13 -15 11 -37 23 -49 26 -13 4 -23 11
-23 16 0 5 16 2 35 -6 46 -19 52 -18 30 6 -18 20 -18 21 1 13 10 -4 28 -15 38
-25 11 -10 28 -18 38 -18 10 0 18 -4 18 -10 0 -5 5 -10 10 -10 6 0 10 18 10
40 l0 40 -176 -1 c-97 0 -173 -3 -169 -7z m5 -67 c9 -11 7 -12 -9 -8 -11 3
-25 11 -31 18 -9 11 -7 12 9 8 11 -3 25 -11 31 -18z m215 -11 c33 -15 36 -19
18 -22 -12 -2 -43 9 -70 23 -41 22 -44 25 -18 21 17 -3 48 -13 70 -22z m87
-44 c35 -21 26 -26 -16 -10 -14 5 -26 14 -26 20 0 14 5 13 42 -10z m-183 -54
c7 -8 24 -14 39 -14 27 1 92 -27 92 -38 0 -4 -12 -3 -26 0 -23 6 -26 4 -21
-14 4 -17 2 -20 -15 -14 -26 8 -128 77 -128 87 0 13 47 7 59 -7z m-129 -22 c0
-2 -9 0 -20 6 -11 6 -20 13 -20 16 0 2 9 0 20 -6 11 -6 20 -13 20 -16z m110
-54 c0 -14 -28 -1 -34 16 -4 12 -2 12 14 4 11 -6 20 -15 20 -20z m-43 -14 c15
-13 25 -27 22 -30 -3 -3 -21 8 -40 24 -19 16 -29 29 -22 30 7 0 25 -11 40 -24z
m78 -46 c3 -5 1 -10 -4 -10 -6 0 -11 5 -11 10 0 6 2 10 4 10 3 0 8 -4 11 -10z
m51 -51 c19 -22 19 -22 -3 -10 -13 6 -23 16 -23 21 0 15 5 12 26 -11z"/>
<path d="M2504 2945 c25 -13 54 -23 65 -22 19 1 19 2 -2 22 -15 14 -36 22 -65
23 l-43 1 45 -24z"/>
<path d="M1970 2890 c0 -5 7 -10 16 -10 8 0 12 5 9 10 -3 6 -10 10 -16 10 -5
0 -9 -4 -9 -10z"/>
<path d="M1915 2842 c6 -5 28 -12 50 -15 47 -7 27 7 -25 18 -23 5 -32 4 -25
-3z"/>
<path d="M2565 2775 c22 -19 44 -34 49 -35 5 0 -8 16 -30 35 -21 19 -43 34
-49 34 -5 1 8 -15 30 -34z"/>
<path d="M1848 2783 c6 -2 18 -2 25 0 6 3 1 5 -13 5 -14 0 -19 -2 -12 -5z"/>
<path d="M2072 2785 c10 -11 68 -23 68 -15 0 4 -7 11 -16 14 -19 7 -59 8 -52
1z"/>
<path d="M2185 2772 c12 -12 125 -45 131 -39 6 6 -62 33 -106 42 -23 5 -32 4
-25 -3z"/>
<path d="M2550 2726 c0 -2 7 -7 16 -10 8 -3 12 -2 9 4 -6 10 -25 14 -25 6z"/>
<path d="M2650 2686 c0 -3 14 -14 30 -26 35 -25 40 -20 8 10 -20 18 -38 26
-38 16z"/>
<path d="M2395 2670 c3 -5 13 -10 21 -10 8 0 14 5 14 10 0 6 -9 10 -21 10 -11
0 -17 -4 -14 -10z"/>
<path d="M2960 2630 c0 -4 7 -13 15 -20 18 -15 20 -35 3 -24 -7 4 -8 3 -4 -4
13 -21 26 -13 26 17 0 20 -6 30 -20 34 -11 3 -20 2 -20 -3z"/>
<path d="M2510 2610 c10 -19 48 -50 61 -50 18 0 -18 48 -43 58 -25 9 -27 9
-18 -8z"/>
<path d="M1900 2600 c0 -5 9 -10 21 -10 11 0 17 5 14 10 -3 6 -13 10 -21 10
-8 0 -14 -4 -14 -10z"/>
<path d="M2390 2576 c0 -2 7 -7 16 -10 8 -3 12 -2 9 4 -6 10 -25 14 -25 6z"/>
<path d="M2795 2560 c11 -10 38 -27 60 -36 l40 -16 -25 28 c-34 39 -41 44 -70
44 -24 0 -24 0 -5 -20z"/>
<path d="M2720 2560 c0 -5 5 -10 11 -10 5 0 7 5 4 10 -3 6 -8 10 -11 10 -2 0
-4 -4 -4 -10z"/>
<path d="M2670 2556 c0 -3 9 -10 20 -16 11 -6 20 -8 20 -6 0 3 -9 10 -20 16
-11 6 -20 8 -20 6z"/>
<path d="M2427 2533 c5 -12 3 -14 -7 -8 -8 5 -11 4 -7 -2 9 -14 46 -23 52 -13
3 4 -6 15 -20 24 -23 15 -24 15 -18 -1z"/>
<path d="M2796 2517 c15 -26 38 -47 52 -47 13 0 13 3 0 22 -16 23 -65 47 -52
25z"/>
<path d="M2870 2495 c0 -2 10 -10 23 -16 20 -11 21 -11 8 4 -13 16 -31 23 -31
12z"/>
<path d="M2217 2455 c40 -20 53 -32 58 -55 4 -17 10 -30 14 -30 12 0 115 -68
139 -92 12 -12 22 -19 22 -15 0 4 10 -1 22 -13 34 -31 43 -24 13 12 -16 19
-23 34 -16 36 6 2 11 8 11 13 0 12 -55 39 -80 39 -17 0 -20 4 -15 20 4 12 2
20 -6 20 -6 0 -46 17 -88 39 -42 21 -87 41 -101 45 -14 3 -2 -6 27 -19z m231
-158 c5 -24 -15 -21 -21 4 -3 13 -1 19 6 16 7 -2 13 -11 15 -20z"/>
<path d="M2497 2443 c-3 -5 15 -26 40 -47 41 -35 45 -37 38 -15 -7 21 -6 22 9
10 14 -12 16 -11 16 3 0 15 -10 20 -36 17 -6 -1 -19 8 -29 19 -19 21 -31 25
-38 13z"/>
<path d="M2840 2426 c8 -11 36 -41 63 -67 26 -27 47 -55 47 -64 0 -8 5 -15 10
-15 6 0 10 5 10 10 0 6 7 10 15 10 23 0 20 60 -2 62 -10 0 -22 2 -28 2 -5 1
-22 14 -37 29 -15 15 -35 27 -46 27 -10 0 -24 6 -32 13 -11 9 -11 8 0 -7z"/>
<path d="M2057 2339 c7 -7 15 -10 18 -7 3 3 -2 9 -12 12 -14 6 -15 5 -6 -5z"/>
<path d="M2108 2323 c7 -3 16 -2 19 1 4 3 -2 6 -13 5 -11 0 -14 -3 -6 -6z"/>
<path d="M2710 2241 c0 -5 7 -14 15 -21 12 -10 15 -10 15 3 0 8 -7 17 -15 21
-8 3 -15 2 -15 -3z"/>
<path d="M2847 2229 c7 -7 15 -10 18 -7 3 3 -2 9 -12 12 -14 6 -15 5 -6 -5z"/>
<path d="M2890 2223 c1 -14 30 -47 36 -41 8 8 -14 48 -26 48 -6 0 -10 -3 -10
-7z"/>
<path d="M2160 2210 c8 -5 22 -9 30 -9 10 0 8 3 -5 9 -27 12 -43 12 -25 0z"/>
<path d="M2960 2188 c0 -7 9 -24 20 -38 l20 -25 0 31 c0 20 -6 34 -16 38 -22
8 -24 8 -24 -6z"/>
<path d="M2910 2151 c0 -5 7 -14 16 -22 8 -7 22 -26 31 -42 12 -25 13 -31 1
-38 -7 -5 -17 -9 -22 -9 -6 0 -2 -6 7 -12 19 -15 29 -107 17 -159 -4 -19 -8
-26 -9 -17 -1 9 -12 30 -26 45 -20 23 -24 25 -25 10 0 -10 5 -28 12 -40 12
-23 21 -77 13 -77 -3 0 -11 15 -18 33 -14 33 -47 68 -47 49 0 -5 7 -15 15 -22
8 -7 15 -26 15 -42 0 -30 19 -58 39 -58 6 0 11 -15 11 -34 0 -18 7 -39 15 -46
20 -16 21 -90 1 -90 -24 0 -36 25 -42 89 -5 39 -10 57 -15 49 -12 -18 -11 -95
0 -103 6 -3 7 -28 4 -55 -5 -42 -3 -50 11 -50 18 0 22 35 6 45 -5 3 -10 10
-10 16 0 17 39 -15 42 -35 2 -11 12 -21 25 -22 21 -4 21 -1 22 121 1 80 -2
125 -9 125 -5 0 -10 12 -10 26 0 14 4 23 10 19 6 -4 10 8 10 30 0 22 -4 34
-10 30 -6 -4 -10 8 -10 30 0 23 4 34 11 30 7 -5 10 20 8 81 -3 88 -3 90 -38
122 -35 32 -51 40 -51 23z"/>
<path d="M2264 2115 c38 -19 71 -34 73 -31 5 5 -85 52 -117 60 -14 4 6 -9 44
-29z"/>
<path d="M2492 2114 c12 -14 14 -24 7 -37 -6 -9 -7 -17 -3 -17 3 0 1 -7 -7
-16 -10 -13 -10 -17 2 -25 17 -11 49 -12 49 -1 0 4 -7 16 -15 26 -18 24 -11
36 18 28 18 -4 20 -3 10 9 -6 8 -26 23 -45 33 -33 19 -33 19 -16 0z"/>
<path d="M2906 2010 c4 -14 7 -37 6 -52 -2 -38 15 -35 23 3 6 25 3 36 -15 53
l-22 21 8 -25z"/>
<path d="M2090 1991 c0 -14 47 -41 72 -41 18 0 14 5 -21 25 -48 28 -51 29 -51
16z"/>
<path d="M2520 1900 c0 -5 5 -10 11 -10 5 0 7 5 4 10 -3 6 -8 10 -11 10 -2 0
-4 -4 -4 -10z"/>
<path d="M0 1890 c0 -5 4 -10 9 -10 6 0 13 5 16 10 3 6 -1 10 -9 10 -9 0 -16
-4 -16 -10z"/>
<path d="M436 1832 c-3 -6 -1 -14 5 -17 15 -10 25 3 12 16 -7 7 -13 7 -17 1z"/>
<path d="M2821 1814 c0 -11 3 -14 6 -6 3 7 2 16 -1 19 -3 4 -6 -2 -5 -13z"/>
<path d="M2836 1748 c10 -18 19 -28 21 -21 5 15 -15 53 -28 53 -5 0 -2 -15 7
-32z"/>
<path d="M2807 1695 c-4 -8 -2 -17 3 -20 6 -4 10 3 10 14 0 25 -6 27 -13 6z"/>
<path d="M2852 1688 c-6 -8 -7 -29 -3 -53 l7 -40 7 49 c8 54 5 63 -11 44z"/>
<path d="M2540 1652 c0 -5 7 -15 15 -22 8 -7 15 -8 15 -2 0 5 -7 15 -15 22 -8
7 -15 8 -15 2z"/>
<path d="M2925 1650 c3 -5 8 -10 11 -10 2 0 4 5 4 10 0 6 -5 10 -11 10 -5 0
-7 -4 -4 -10z"/>
<path d="M2080 1630 c0 -5 5 -10 10 -10 6 0 10 5 10 10 0 6 -4 10 -10 10 -5 0
-10 -4 -10 -10z"/>
<path d="M2820 1630 c0 -5 5 -10 11 -10 5 0 7 5 4 10 -3 6 -8 10 -11 10 -2 0
-4 -4 -4 -10z"/>
<path d="M0 1620 c0 -5 7 -10 16 -10 8 0 12 5 9 10 -3 6 -10 10 -16 10 -5 0
-9 -4 -9 -10z"/>
<path d="M2750 1596 c0 -14 5 -28 10 -31 6 -4 10 7 10 24 0 17 -4 31 -10 31
-5 0 -10 -11 -10 -24z"/>
<path d="M2851 1574 c0 -11 3 -14 6 -6 3 7 2 16 -1 19 -3 4 -6 -2 -5 -13z"/>
<path d="M2788 1565 c3 -5 15 -23 28 -40 12 -16 19 -37 17 -45 -4 -12 -2 -12
5 -2 5 8 5 29 -1 55 -7 34 -13 42 -32 42 -13 0 -20 -4 -17 -10z"/>
<path d="M2660 1512 c0 -12 7 -25 15 -29 24 -9 25 0 5 27 l-20 25 0 -23z"/>
<path d="M2740 1493 c0 -5 7 -18 15 -29 12 -16 14 -16 15 -3 0 9 -7 22 -15 29
-8 7 -15 8 -15 3z"/>
<path d="M2585 1430 c3 -5 8 -10 11 -10 2 0 4 5 4 10 0 6 -5 10 -11 10 -5 0
-7 -4 -4 -10z"/>
<path d="M2740 1414 c0 -8 5 -12 10 -9 6 3 10 10 10 16 0 5 -4 9 -10 9 -5 0
-10 -7 -10 -16z"/>
<path d="M2675 1380 c3 -5 8 -10 11 -10 2 0 4 5 4 10 0 6 -5 10 -11 10 -5 0
-7 -4 -4 -10z"/>
<path d="M2515 1340 c3 -5 8 -10 11 -10 2 0 4 5 4 10 0 6 -5 10 -11 10 -5 0
-7 -4 -4 -10z"/>
<path d="M2685 1340 c4 -6 11 -8 16 -5 14 9 11 15 -7 15 -8 0 -12 -5 -9 -10z"/>
<path d="M2610 1275 c0 -9 6 -12 15 -9 8 4 15 10 15 15 0 5 -7 9 -15 9 -8 0
-15 -7 -15 -15z"/>
<path d="M2 1258 c5 -15 28 -23 28 -10 0 5 -7 13 -16 16 -10 4 -14 1 -12 -6z"/>
<path d="M2620 1145 c0 -8 4 -15 10 -15 5 0 7 7 4 15 -4 8 -8 15 -10 15 -2 0
-4 -7 -4 -15z"/>
<path d="M2700 1090 c0 -11 4 -20 9 -20 5 0 7 9 4 20 -3 11 -7 20 -9 20 -2 0
-4 -9 -4 -20z"/>
<path d="M2754 1085 c-8 -20 3 -48 16 -40 13 8 13 55 0 55 -6 0 -13 -7 -16
-15z"/>
<path d="M2660 1082 c0 -19 12 -42 22 -42 14 0 5 43 -9 48 -7 2 -13 -1 -13 -6z"/>
<path d="M2 1053 c2 -9 18 -21 37 -25 19 -6 35 -17 38 -28 3 -11 18 -22 37
-26 17 -3 43 -15 59 -26 15 -11 33 -18 40 -15 6 2 -3 12 -21 21 -22 11 -32 22
-28 32 5 13 -6 19 -28 15 -20 -4 -57 10 -51 19 6 9 -14 22 -60 40 -23 9 -26 8
-23 -7z"/>
<path d="M2745 909 c-22 -56 -30 -55 -27 1 2 24 -2 40 -8 40 -6 0 -8 -4 -5
-10 3 -5 1 -10 -4 -10 -6 0 -11 -8 -11 -18 0 -10 -6 -24 -12 -31 -11 -10 -9
-16 10 -31 12 -10 22 -29 22 -44 0 -13 4 -27 9 -30 5 -4 7 3 4 13 -3 10 1 30
9 42 7 13 13 33 13 44 0 12 6 19 14 17 8 -2 18 3 22 10 6 8 9 1 10 -22 1 -19
3 -27 6 -17 7 28 -6 84 -20 90 -9 3 -20 -13 -32 -44z"/>
<path d="M0 921 c0 -22 4 -29 14 -25 8 3 30 1 50 -4 55 -16 54 5 -1 30 -26 12
-51 24 -55 26 -5 2 -8 -10 -8 -27z"/>
<path d="M1068 903 c-10 -2 -18 -9 -18 -14 0 -13 12 -11 34 6 20 15 16 17 -16
8z"/>
<path d="M1153 890 c-13 -5 -23 -12 -23 -15 0 -11 37 -4 56 10 22 17 4 20 -33
5z"/>
<path d="M378 883 c7 -3 16 -2 19 1 4 3 -2 6 -13 5 -11 0 -14 -3 -6 -6z"/>
<path d="M2460 875 c0 -8 4 -15 10 -15 5 0 7 7 4 15 -4 8 -8 15 -10 15 -2 0
-4 -7 -4 -15z"/>
<path d="M1071 871 c-9 -6 -10 -11 -2 -15 15 -10 53 3 46 15 -8 11 -26 11 -44
0z"/>
<path d="M2825 863 c3 -10 9 -30 12 -45 3 -16 9 -28 14 -28 12 0 11 37 -1 45
-5 3 -10 15 -10 26 0 10 -5 19 -11 19 -7 0 -8 -7 -4 -17z"/>
<path d="M2640 826 c0 -2 7 -9 15 -16 12 -10 15 -10 15 4 0 9 -7 16 -15 16 -8
0 -15 -2 -15 -4z"/>
<path d="M2780 801 c0 -12 5 -21 10 -21 6 0 10 6 10 14 0 8 -4 18 -10 21 -5 3
-10 -3 -10 -14z"/>
<path d="M0 770 c0 -5 7 -10 16 -10 8 0 12 5 9 10 -3 6 -10 10 -16 10 -5 0 -9
-4 -9 -10z"/>
<path d="M1206 752 c-3 -5 -26 -15 -50 -21 -25 -6 -48 -15 -51 -21 -9 -14 10
-13 48 3 18 8 38 12 44 10 7 -3 16 3 19 12 7 18 -1 32 -10 17z"/>
<path d="M1325 724 c-22 -12 -48 -23 -57 -23 -10 -1 -18 -5 -18 -11 0 -13 23
-13 37 1 6 6 33 12 59 13 50 1 68 18 37 34 -13 6 -30 2 -58 -14z"/>
<path d="M300 730 c20 -13 33 -13 25 0 -3 6 -14 10 -23 10 -15 0 -15 -2 -2
-10z"/>
<path d="M2490 720 c0 -6 6 -10 13 -10 6 0 24 -7 40 -14 27 -15 37 -5 19 19
-9 13 -72 17 -72 5z"/>
<path d="M30 705 c7 -8 20 -15 29 -15 13 1 13 3 -3 15 -26 19 -42 19 -26 0z"/>
<path d="M0 662 c0 -15 24 -32 47 -32 30 0 29 14 -2 28 -30 14 -45 15 -45 4z"/>
<path d="M151 666 c22 -21 78 -43 90 -35 12 8 12 9 -1 7 -8 -1 -29 6 -47 15
-29 16 -52 23 -42 13z"/>
<path d="M0 611 c0 -6 5 -11 10 -11 6 0 10 -7 10 -16 0 -8 -4 -12 -10 -9 -5 3
-10 1 -10 -4 0 -6 3 -11 8 -12 68 -5 80 -5 76 3 -3 4 -15 8 -27 9 -12 0 -17 3
-10 5 6 3 33 1 60 -5 26 -5 82 -17 123 -25 41 -9 93 -16 115 -16 36 0 38 1 23
16 -13 13 -33 16 -87 15 -39 -1 -79 3 -89 8 -11 6 -50 17 -88 25 -38 8 -77 17
-86 21 -11 4 -18 3 -18 -4z"/>
<path d="M1600 489 c0 -3 -12 -12 -27 -19 -19 -8 -23 -14 -14 -18 7 -2 17 1
21 8 4 6 11 11 16 11 17 -1 44 10 44 19 0 5 -9 8 -20 7 -11 -1 -20 -4 -20 -8z"/>
<path d="M280 480 c-34 -5 -33 -6 35 -27 39 -11 86 -23 105 -27 31 -5 33 -4
18 8 -10 7 -18 18 -18 25 0 6 -5 11 -11 11 -5 0 -7 -6 -3 -12 4 -7 -3 -4 -15
6 -23 21 -55 26 -111 16z"/>
<path d="M181 441 c-10 -7 -6 -11 17 -16 35 -7 57 -29 47 -46 -6 -8 -9 -8 -15
1 -7 11 -159 34 -168 26 -12 -12 58 -41 102 -42 28 -1 65 -9 81 -17 17 -9 73
-21 125 -27 52 -7 99 -15 104 -18 5 -3 6 0 3 5 -8 12 -84 33 -141 39 -21 2
-48 7 -59 10 -20 6 -19 7 6 20 27 14 68 7 82 -15 3 -6 30 -11 59 -11 30 0 60
-6 72 -15 10 -8 30 -15 43 -15 20 0 21 2 11 15 -7 8 -20 15 -29 15 -9 0 -23 5
-31 10 -10 6 -4 8 21 4 22 -4 39 -2 43 5 4 6 1 11 -6 11 -63 3 -186 25 -291
54 -68 19 -59 18 -76 7z"/>
<path d="M0 400 c0 -5 7 -10 16 -10 8 0 12 5 9 10 -3 6 -10 10 -16 10 -5 0 -9
-4 -9 -10z"/>
<path d="M1650 349 c0 -5 5 -7 10 -4 6 3 10 8 10 11 0 2 -4 4 -10 4 -5 0 -10
-5 -10 -11z"/>
<path d="M2985 308 c-2 -7 -6 -29 -8 -48 -4 -33 -4 -32 -5 8 -1 23 -6 42 -12
42 -5 0 -11 -19 -12 -42 -3 -61 -5 -101 -7 -113 0 -6 -14 -16 -31 -22 -25 -9
-30 -17 -30 -44 0 -26 -3 -30 -12 -21 -18 18 -28 15 -28 -9 0 -16 4 -20 18
-14 14 5 15 4 4 -7 -11 -11 -16 -10 -28 6 -16 23 -19 21 -28 -16 l-6 -28 55 0
c37 0 54 4 50 10 -4 6 -2 16 3 23 5 7 15 30 22 51 10 32 14 36 22 22 5 -9 15
-16 23 -16 7 0 15 -5 17 -11 2 -7 5 45 6 115 2 116 -2 146 -13 114z"/>
<path d="M1973 288 c-19 -9 -32 -28 -20 -28 8 0 67 32 67 36 0 7 -24 3 -47 -8z"/>
<path d="M508 193 c7 -3 16 -2 19 1 4 3 -2 6 -13 5 -11 0 -14 -3 -6 -6z"/>
<path d="M2900 180 c0 -5 5 -10 10 -10 6 0 10 5 10 10 0 6 -4 10 -10 10 -5 0
-10 -4 -10 -10z"/>
<path d="M595 150 c3 -5 13 -10 21 -10 8 0 14 5 14 10 0 6 -9 10 -21 10 -11 0
-17 -4 -14 -10z"/>
<path d="M220 130 c0 -9 40 -30 56 -30 14 0 0 19 -21 28 -32 15 -35 15 -35 2z"/>
<path d="M0 95 c0 -8 2 -15 4 -15 2 0 6 7 10 15 3 8 1 15 -4 15 -6 0 -10 -7
-10 -15z"/>
<path d="M34 92 c3 -5 23 -12 43 -16 114 -17 131 -24 103 -41 -19 -12 1 -25
38 -25 l37 0 -28 18 c-15 10 -24 22 -20 25 11 12 48 8 69 -7 18 -14 18 -15 2
-21 -46 -18 9 -25 185 -25 143 1 196 4 209 14 10 7 15 16 11 19 -12 13 -71 7
-83 -8 -17 -20 -26 -19 -49 6 -14 16 -28 20 -57 16 -22 -2 -51 2 -68 11 -38
18 -123 30 -275 38 -79 4 -121 2 -117 -4z m436 -71 c0 -5 -9 -7 -20 -4 -11 3
-20 7 -20 9 0 2 9 4 20 4 11 0 20 -4 20 -9z"/>
</g>
</svg>
