<svg width="625" height="224" fill="none" xmlns="http://www.w3.org/2000/svg"><path d="M.203 41.836h41.992l15.137 79.98 22.07-79.98h41.895l22.168 79.98 15.137-79.98h41.796L168.855 185h-43.359l-25.098-90.137-25 90.137H32.04L.203 41.836ZM209.383 113.516c0-23.373 6.51-41.57 19.531-54.59 13.021-13.021 31.152-19.532 54.395-19.532 23.828 0 42.187 6.413 55.078 19.239 12.89 12.76 19.336 30.664 19.336 53.711 0 16.732-2.832 30.468-8.496 41.211-5.599 10.677-13.737 19.01-24.415 25-10.611 5.924-23.86 8.886-39.746 8.886-16.145 0-29.524-2.571-40.136-7.714-10.547-5.144-19.108-13.282-25.684-24.415-6.575-11.132-9.863-25.065-9.863-41.796Zm44.238.195c0 14.453 2.669 24.837 8.008 31.152 5.404 6.315 12.728 9.473 21.973 9.473 9.505 0 16.862-3.093 22.07-9.277 5.208-6.185 7.812-17.286 7.812-33.301 0-13.477-2.734-23.307-8.203-29.492-5.403-6.25-12.76-9.375-22.07-9.375-8.919 0-16.081 3.157-21.484 9.472-5.404 6.315-8.106 16.765-8.106 31.348ZM381.551 41.836h44.238v107.91h69.043V185H381.551V41.836ZM515.145 41.836H624.52v30.762h-64.942v25h55.469v28.906h-55.469V185h-44.433V41.836Z" fill="#CD1719"/><path d="M3.584 28h10.792v-2.622H6.434v-9.614h6.916v-2.47H6.434V4.022h7.828V1.4H3.584V28ZM18.094 28h10.792v-2.622h-7.942v-9.614h6.916v-2.47h-6.916V4.022h7.828V1.4H18.094V28ZM32.603 1.4V28h2.85V8.582L42.977 28h2.85V1.4h-2.85v19.798L35.454 1.4h-2.85ZM59.879 28h2.85V16.144h7.106v-2.698h-7.106V4.022h8.094V1.4H59.879V28ZM74.132 1.4V28h2.85V1.4h-2.85ZM82.33 1.4V28h11.248v-2.622H85.18V1.4h-2.85ZM96.914 28h2.85V9.988h.114l4.75 13.528h1.406l4.75-13.528h.114V28h2.85V1.4h-2.888l-5.358 16.644h-.114L99.802 1.4h-2.888V28ZM139.797 1.4h-3.002l-3.8 19.722h-.114L129.157 1.4h-3.192l5.662 26.6h2.546l5.624-26.6ZM154.365 28l-5.814-26.6h-2.584L140.191 28h2.774l1.292-5.928h6.004l1.33 5.928h2.774Zm-4.522-8.36h-5.206l2.546-12.54 2.66 12.54ZM158.293 1.4V28h2.85V8.582L168.667 28h2.85V1.4h-2.85v19.798L161.143 1.4h-2.85ZM197.12 20.286v1.672c0 .836-.164 1.634-.494 2.394a6.337 6.337 0 0 1-1.292 1.976 6.517 6.517 0 0 1-1.976 1.406 5.78 5.78 0 0 1-2.394.494 8.68 8.68 0 0 1-2.242-.304 5.304 5.304 0 0 1-2.052-1.064c-.608-.507-1.114-1.153-1.52-1.938-.38-.81-.57-1.837-.57-3.078V6.948c0-.887.152-1.71.456-2.47a5.818 5.818 0 0 1 1.292-1.976 5.82 5.82 0 0 1 1.976-1.292c.786-.33 1.647-.494 2.584-.494 1.824 0 3.306.595 4.446 1.786.558.583.988 1.28 1.292 2.09.33.785.494 1.647.494 2.584v1.52h-3.876V7.404c0-.76-.215-1.419-.646-1.976-.43-.557-1.013-.836-1.748-.836-.962 0-1.608.304-1.938.912-.304.583-.456 1.33-.456 2.242v13.832c0 .785.165 1.444.494 1.976.355.532.976.798 1.862.798.254 0 .52-.038.798-.114.304-.101.583-.253.836-.456.228-.203.418-.481.57-.836.152-.355.228-.798.228-1.33v-1.33h3.876ZM200.283 28V.944h11.552v3.648h-7.676v7.942h6.688v3.648h-6.688v7.942h7.676V28h-11.552ZM214.347 28V.944h11.552v3.648h-7.676v7.942h6.688v3.648h-6.688v7.942h7.676V28h-11.552ZM240.952 8.734h-3.876V7.86c0-.887-.215-1.647-.646-2.28-.405-.659-1.102-.988-2.09-.988-.532 0-.963.101-1.292.304a2.555 2.555 0 0 0-.798.76c-.203.33-.342.71-.418 1.14a7.006 7.006 0 0 0-.114 1.292c0 .532.013.975.038 1.33.051.355.152.671.304.95.152.279.367.52.646.722.304.203.709.405 1.216.608l2.964 1.178c.861.33 1.558.722 2.09 1.178.532.43.95.937 1.254 1.52.279.608.469 1.305.57 2.09.101.76.152 1.634.152 2.622 0 1.14-.114 2.204-.342 3.192-.228.963-.595 1.786-1.102 2.47-.532.71-1.229 1.267-2.09 1.672-.861.405-1.913.608-3.154.608a6.903 6.903 0 0 1-2.622-.494 6.235 6.235 0 0 1-2.09-1.368 7.026 7.026 0 0 1-1.406-2.014 6.522 6.522 0 0 1-.494-2.546v-1.444h3.876v1.216c0 .71.203 1.355.608 1.938.431.557 1.14.836 2.128.836.659 0 1.165-.089 1.52-.266.38-.203.671-.481.874-.836.203-.355.317-.773.342-1.254.051-.507.076-1.064.076-1.672 0-.71-.025-1.292-.076-1.748-.051-.456-.152-.823-.304-1.102a2.078 2.078 0 0 0-.722-.684 7.919 7.919 0 0 0-1.14-.57l-2.774-1.14c-1.672-.684-2.799-1.583-3.382-2.698-.557-1.14-.836-2.559-.836-4.256 0-1.013.139-1.976.418-2.888.279-.912.697-1.697 1.254-2.356a5.598 5.598 0 0 1 2.014-1.558c.836-.405 1.824-.608 2.964-.608.963 0 1.837.177 2.622.532a6.74 6.74 0 0 1 2.09 1.406c1.165 1.216 1.748 2.61 1.748 4.18v1.9ZM264.048.944 258.5 28h-3.42L249.57.944h4.104l3.078 18.886h.076L259.944.944h4.104ZM272.793 18.538l-1.9-9.804h-.076l-1.9 9.804h3.876ZM263.217 28 269.259.944h3.23L278.531 28h-3.876l-1.14-5.814h-5.282L267.093 28h-3.876ZM280.287 28V.944h3.724l5.852 16.302h.076V.944h3.876V28h-3.648l-5.928-16.264h-.076V28h-3.876ZM304.375 28V.944h3.876v12.35h.076l5.662-12.35h3.876l-5.282 10.83L318.853 28h-4.104l-4.408-12.008-2.09 3.914V28h-3.876ZM320.554 28V.944h11.552v3.648h-7.676v7.942h6.688v3.648h-6.688v7.942h7.676V28h-11.552ZM334.619 28V.944h3.724l4.978 14.326h.076l4.94-14.326h3.762V28h-3.876V11.546h-.076l-3.838 11.628h-1.938l-3.8-11.628h-.076V28h-3.876ZM355.734 28V.944h5.814c1.064 0 2.001.14 2.812.418.811.279 1.545.773 2.204 1.482a5.784 5.784 0 0 1 1.368 2.508c.253.937.38 2.217.38 3.838 0 1.216-.076 2.242-.228 3.078a6.189 6.189 0 0 1-.874 2.356 5.802 5.802 0 0 1-2.128 2.09c-.887.481-2.052.722-3.496.722h-1.976V28h-3.876Zm3.876-23.408v9.196h1.862c.785 0 1.393-.114 1.824-.342.431-.228.747-.545.95-.95.203-.38.317-.849.342-1.406.051-.557.076-1.178.076-1.862 0-.633-.013-1.229-.038-1.786-.025-.583-.139-1.09-.342-1.52a2.161 2.161 0 0 0-.912-.988c-.405-.228-.988-.342-1.748-.342h-2.014ZM371.209 28V.944h11.552v3.648h-7.676v7.942h6.688v3.648h-6.688v7.942h7.676V28h-11.552ZM385.121 28V.944h3.724l5.852 16.302h.076V.944h3.876V28h-3.648l-5.928-16.264h-.076V28h-3.876ZM158.913 200.6h-2.528l-3.2 16.608h-.096l-3.136-16.608h-2.688l4.768 22.4h2.144l4.736-22.4ZM161.739 223h9.088v-2.208h-6.688v-8.096h5.824v-2.08h-5.824v-7.808h6.592V200.6h-8.992V223ZM173.957 200.6V223h2.4v-10.08h2.72l3.296 10.08h2.496l-3.584-10.56c2.048-.64 3.072-2.304 3.072-4.768v-1.76c0-4.96-3.488-5.312-5.92-5.312h-4.48Zm2.4 2.08h2.24c1.216 0 3.36.256 3.36 3.04v2.112c0 1.984-1.472 3.008-3.232 3.008h-2.368v-8.16ZM186.05 200.6v2.208h4.128V223h2.4v-20.192h4.16V200.6H186.05ZM199.707 223h9.088v-2.208h-6.688v-8.096h5.824v-2.08h-5.824v-7.808h6.592V200.6h-8.992V223ZM211.926 200.6V223h9.472v-2.208h-7.072V200.6h-2.4ZM224.207 200.6V223h4.48c1.216 0 3.04-.192 4.384-1.664 1.184-1.344 1.344-2.944 1.344-4.48v-10.112c0-1.536-.16-3.136-1.344-4.48-1.344-1.472-3.168-1.664-4.384-1.664h-4.48Zm6.912 19.136c-.768.832-1.76.928-2.56.928h-1.952v-17.728h1.952c.8 0 1.792.096 2.56.928.864.896.896 2.24.896 3.072v9.728c0 .832-.032 2.176-.896 3.072ZM246.082 200.6V223h4.48c1.216 0 3.04-.192 4.384-1.664 1.184-1.344 1.344-2.944 1.344-4.48v-10.112c0-1.536-.16-3.136-1.344-4.48-1.344-1.472-3.168-1.664-4.384-1.664h-4.48Zm6.912 19.136c-.768.832-1.76.928-2.56.928h-1.952v-17.728h1.952c.8 0 1.792.096 2.56.928.864.896.896 2.24.896 3.072v9.728c0 .832-.032 2.176-.896 3.072ZM260.329 217.336c0 1.664.128 3.264 1.6 4.64.896.864 2.176 1.344 3.776 1.344 1.6 0 2.88-.48 3.776-1.344 1.472-1.376 1.6-2.976 1.6-4.64v-11.072c0-1.664-.128-3.264-1.6-4.64-.896-.864-2.176-1.344-3.776-1.344-1.6 0-2.88.48-3.776 1.344-1.472 1.376-1.6 2.976-1.6 4.64v11.072Zm8.352.512c0 .8-.064 1.6-.832 2.368-.448.416-1.184.768-2.144.768-.96 0-1.696-.352-2.144-.768-.768-.768-.832-1.568-.832-2.368v-12.096c0-.8.064-1.6.832-2.336.448-.448 1.184-.8 2.144-.8.96 0 1.696.352 2.144.8.768.736.832 1.536.832 2.336v12.096ZM275.11 217.336c0 1.664.128 3.264 1.6 4.64.896.864 2.176 1.344 3.776 1.344 1.6 0 2.88-.48 3.776-1.344 1.472-1.376 1.6-2.976 1.6-4.64v-11.072c0-1.664-.128-3.264-1.6-4.64-.896-.864-2.176-1.344-3.776-1.344-1.6 0-2.88.48-3.776 1.344-1.472 1.376-1.6 2.976-1.6 4.64v11.072Zm8.352.512c0 .8-.064 1.6-.832 2.368-.448.416-1.184.768-2.144.768-.96 0-1.696-.352-2.144-.768-.768-.768-.832-1.568-.832-2.368v-12.096c0-.8.064-1.6.832-2.336.448-.448 1.184-.8 2.144-.8.96 0 1.696.352 2.144.8.768.736.832 1.536.832 2.336v12.096ZM290.051 200.6V223h2.4v-10.08h2.72l3.296 10.08h2.496l-3.584-10.56c2.048-.64 3.072-2.304 3.072-4.768v-1.76c0-4.96-3.488-5.312-5.92-5.312h-4.48Zm2.4 2.08h2.24c1.216 0 3.36.256 3.36 3.04v2.112c0 1.984-1.472 3.008-3.232 3.008h-2.368v-8.16ZM311.161 223v-22.784h3.136l4.192 12.064h.064l4.16-12.064h3.168V223h-3.264v-13.856h-.064l-3.232 9.792h-1.632l-3.2-9.792h-.064V223h-3.264ZM335.534 215.032l-1.6-8.256h-.064l-1.6 8.256h3.264ZM327.47 223l5.088-22.784h2.72L340.366 223h-3.264l-.96-4.896h-4.448l-.96 4.896h-3.264ZM342.368 223v-19.712h-3.776v-3.072h10.816v3.072h-3.776V223h-3.264ZM350.849 223v-22.784h3.264v9.76h4.032v-9.76h3.264V223h-3.264v-10.144h-4.032V223h-3.264ZM364.57 223v-22.784h3.264V223h-3.264ZM378.589 200.216v17.408c0 1.557-.491 2.859-1.472 3.904a5.416 5.416 0 0 1-1.76 1.216c-.661.299-1.44.448-2.336.448-1.045 0-1.92-.224-2.624-.672-.683-.469-1.227-.928-1.632-1.376l2.56-2.048c.235.235.501.437.8.608.32.149.651.224.992.224.192 0 .416-.032.672-.096.256-.085.501-.235.736-.448.235-.192.427-.459.576-.8.149-.363.224-.832.224-1.408v-16.96h3.264ZM392.221 206.776h-3.264v-.736c0-.747-.181-1.387-.544-1.92-.341-.555-.928-.832-1.76-.832-.448 0-.811.085-1.088.256a2.157 2.157 0 0 0-.672.64 2.701 2.701 0 0 0-.352.96 5.897 5.897 0 0 0-.096 1.088c0 .448.011.821.032 1.12.043.299.128.565.256.8.128.235.309.437.544.608a5.67 5.67 0 0 0 1.024.512l2.496.992c.725.277 1.312.608 1.76.992.448.363.8.789 1.056 1.28.235.512.395 1.099.48 1.76.085.64.128 1.376.128 2.208 0 .96-.096 1.856-.288 2.688-.192.811-.501 1.504-.928 2.08a4.609 4.609 0 0 1-1.76 1.408c-.725.341-1.611.512-2.656.512a5.82 5.82 0 0 1-2.208-.416 5.242 5.242 0 0 1-1.76-1.152 5.92 5.92 0 0 1-1.184-1.696 5.492 5.492 0 0 1-.416-2.144v-1.216h3.264v1.024c0 .597.171 1.141.512 1.632.363.469.96.704 1.792.704.555 0 .981-.075 1.28-.224.32-.171.565-.405.736-.704.171-.299.267-.651.288-1.056.043-.427.064-.896.064-1.408 0-.597-.021-1.088-.064-1.472-.043-.384-.128-.693-.256-.928a1.744 1.744 0 0 0-.608-.576 6.738 6.738 0 0 0-.96-.48l-2.336-.96c-1.408-.576-2.357-1.333-2.848-2.272-.469-.96-.704-2.155-.704-3.584 0-.853.117-1.664.352-2.432a5.545 5.545 0 0 1 1.056-1.984 4.71 4.71 0 0 1 1.696-1.312c.704-.341 1.536-.512 2.496-.512.811 0 1.547.149 2.208.448a5.676 5.676 0 0 1 1.76 1.184c.981 1.024 1.472 2.197 1.472 3.52v1.6ZM411.671 200.216 406.999 223h-2.88l-4.64-22.784h3.456l2.592 15.904h.064l2.624-15.904h3.456ZM419.034 215.032l-1.6-8.256h-.064l-1.6 8.256h3.264ZM410.97 223l5.088-22.784h2.72L423.866 223h-3.264l-.96-4.896h-4.448l-.96 4.896h-3.264ZM425.346 223v-22.784h3.136l4.928 13.728h.064v-13.728h3.264V223h-3.072l-4.992-13.696h-.064V223h-3.264ZM445.502 223v-22.784h3.136l4.928 13.728h.064v-13.728h3.264V223h-3.072l-4.992-13.696h-.064V223h-3.264ZM459.945 223v-22.784h3.264V223h-3.264ZM466.38 223v-22.784h9.728v3.072h-6.464v6.688h5.632v3.072h-5.632v6.688h6.464V223h-9.728ZM488.784 200.216v17.664c0 .747-.139 1.44-.416 2.08a5.099 5.099 0 0 1-1.12 1.664 5.423 5.423 0 0 1-1.696 1.152 5.102 5.102 0 0 1-2.048.416 5.098 5.098 0 0 1-2.048-.416 5.522 5.522 0 0 1-1.664-1.152 5.534 5.534 0 0 1-1.152-1.664 5.162 5.162 0 0 1-.416-2.08v-17.664h3.264v17.344c0 .811.192 1.408.576 1.792.384.384.864.576 1.44.576s1.056-.192 1.44-.576c.384-.384.576-.981.576-1.792v-17.344h3.264ZM508.777 200.216 505.385 223h-3.072l-2.496-14.784h-.064L497.289 223h-3.072l-3.392-22.784h3.456l1.632 14.464h.064l2.56-14.464h2.496l2.656 14.816h.064l1.568-14.816h3.456ZM510.817 223v-22.784h3.264v10.4h.064l4.768-10.4h3.264l-4.448 9.12 5.28 13.664h-3.456l-3.712-10.112-1.76 3.296V223h-3.264ZM524.442 223v-22.784h9.728v3.072h-6.464v6.688h5.632v3.072h-5.632v6.688h6.464V223h-9.728ZM539.55 203.288v7.104h1.856c.576 0 1.035-.075 1.376-.224.341-.171.608-.405.8-.704.171-.299.288-.661.352-1.088.064-.448.096-.96.096-1.536 0-.576-.032-1.077-.096-1.504a3.059 3.059 0 0 0-.384-1.152c-.405-.597-1.173-.896-2.304-.896h-1.696ZM536.286 223v-22.784h5.248c3.84 0 5.76 2.229 5.76 6.688 0 1.344-.213 2.485-.64 3.424-.405.939-1.131 1.696-2.176 2.272l3.52 10.4h-3.456l-3.04-9.728h-1.952V223h-3.264ZM549.911 223v-22.784h3.264v10.4h.064l4.768-10.4h3.264l-4.448 9.12 5.28 13.664h-3.456l-3.712-10.112-1.76 3.296V223h-3.264Z" fill="#fff"/></svg>